# xmcd CD database file
#
# Track frame offsets:
#	150
#	12065
#	23855
#	36435
#	49035
#	62602
#	73260
#	86280
#	99295
#	112465
#	123987
#	136252
#	149497
#	162212
#	176157
#	188027
#	199765
#	214290
#	225610
#	238375
#	251457
#	264922
#	278912
#	288077
#	300642
#	314280
#
# Disc length: 4341 seconds
#
# Revision: 3
# Processed by: cddbd v1.5.2PL0 Copyright (c) Steve Scherf et al.
# Submitted via: CDex 1.51
#
DISCID=7c10f31a
DTITLE=Various Artist - Clapton Classics
DYEAR=1991
DGENRE=Blues
TTITLE0=All Your Love - Otis Rush
TTITLE1=Hideaway - Freddy King
TTITLE2=Born Under A Bad Sign - Albert King
TTITLE3=Spoonful - Howlin' Wolf
TTITLE4=Rollin' And Tumblin' - Muddy Waters
TTITLE5=Cat's Squirrel - Dr. Ross
TTITLE6=Ramblin' On My Mind - Robert Johnson
TTITLE7=I'm So Glad - Skip James
TTITLE8=Outside Woman Blues - Blind Joe Reynolds
TTITLE9=Sittin' On Top Of The World - Howlin' Wolf
TTITLE10=I Wish You Would - Billy Boy Arnold
TTITLE11=Too Much Monkey Business - Chuck Berry
TTITLE12=I Got Love If You Want It - Slim Harpo
TTITLE13=Smokestack Lightnin' - Howlin' Wolf
TTITLE14=Five Long Years - Eddie Boyd
TTITLE15=Willie And The Hand Jive - Johnny Otis
TTITLE16=Jesus Is Coming Soon - Blind Willie Johnson
TTITLE17=Swing Low Sweet Chariot - The Staple Singers
TTITLE18=Everybody Oughta Make A Change - Sleepy John Estes
TTITLE19=Worried Life Blues - Big Maceo
TTITLE20=Further On Up The Road - Bobby Bland
TTITLE21=Have You Ever Loved A Woman - Freddy King
TTITLE22=Steppin' Out - Memphis Slim
TTITLE23=The Sky Is Crying - Elmore James
TTITLE24=Eyesight To The Blind - Sonny Boy Williamson
TTITLE25=Crossroads - Robert Johnson
EXTD=YEAR: 1991
EXTT0=
EXTT1=
EXTT2=
EXTT3=
EXTT4=
EXTT5=
EXTT6=
EXTT7=
EXTT8=
EXTT9=
EXTT10=
EXTT11=
EXTT12=
EXTT13=
EXTT14=
EXTT15=
EXTT16=
EXTT17=
EXTT18=
EXTT19=
EXTT20=
EXTT21=
EXTT22=
EXTT23=
EXTT24=
EXTT25=
PLAYORDER=
